# File produced by Open Asset Import Library (http://www.assimp.sf.net)
# (assimp v3.1.206520482)

mtllib police.mtl

# 168 vertex positions
v 174.776 9.91821e-05 31.1389
v 174.776 9.91821e-05 39.6485
v 157.926 88.6331 0.808349
v 161.412 70.2971 0.904354
v 164.446 70.8739 0.904354
v 160.96 89.21 0.808349
v 177.81 0.576935 31.1303
v 177.81 0.576935 39.6485
v 174.776 9.91821e-05 -31.1389
v 161.412 70.2971 -0.904354
v 157.926 88.6331 -0.808349
v 174.776 9.91821e-05 -39.6485
v 164.446 70.8739 -0.904354
v 160.96 89.21 -0.808349
v 177.81 0.576935 -31.1303
v 177.81 0.576935 -39.6485
v 174.738 17.2082 -32.3609
v 174.738 17.2082 32.3814
v 173.199 25.3018 28.8343
v 173.199 25.3018 -28.8138
v 175.975 17.4434 -32.3609
v 175.975 17.4434 32.3814
v 174.436 25.537 -28.8138
v 174.436 25.537 28.8343
v 161.082 64.8677 -11.104
v 161.082 64.8677 11.1103
v 160.098 70.0473 8.84572
v 160.098 70.0473 -8.83955
v 162.32 65.103 -11.104
v 162.32 65.103 11.1103
v 161.335 70.2825 -8.83955
v 161.335 70.2825 8.84572
v 171.558 16.6036 32.3814
v 171.558 16.6036 -32.3609
v 170.019 24.6972 -28.8138
v 170.019 24.6972 28.8343
v 168.781 24.4619 28.8343
v 170.32 16.3683 32.3814
v 168.781 24.4619 -28.8138
v 170.32 16.3683 -32.3609
v 165.481 65.7039 -11.104
v 165.481 65.7039 11.1103
v 164.496 70.8834 8.84572
v 164.496 70.8834 -8.83955
v 166.718 65.9391 -11.104
v 166.718 65.9391 11.1103
v 165.733 71.1187 -8.83955
v 165.733 71.1187 8.84572
v -174.776 9.91821e-05 31.1389
v -161.412 70.2971 0.904354
v -157.926 88.6331 0.808349
v -174.776 9.91821e-05 39.6485
v -164.446 70.8739 0.904354
v -160.96 89.21 0.808349
v -177.81 0.576935 31.1303
v -177.81 0.576935 39.6485
v -174.776 9.91821e-05 -31.1389
v -174.776 9.91821e-05 -39.6485
v -157.926 88.6331 -0.808349
v -161.412 70.2971 -0.904354
v -164.446 70.8739 -0.904354
v -160.96 89.21 -0.808349
v -177.81 0.576935 -31.1303
v -177.81 0.576935 -39.6485
v -174.738 17.2082 -32.3609
v -173.199 25.3018 -28.8138
v -173.199 25.3018 28.8343
v -174.738 17.2082 32.3814
v -175.975 17.4434 -32.3609
v -175.975 17.4434 32.3814
v -174.436 25.537 -28.8138
v -174.436 25.537 28.8343
v -161.082 64.8677 -11.104
v -160.098 70.0473 -8.83955
v -160.098 70.0473 8.84572
v -161.082 64.8677 11.1103
v -162.32 65.103 -11.104
v -162.32 65.103 11.1103
v -161.335 70.2825 -8.83955
v -161.335 70.2825 8.84572
v -171.558 16.6036 32.3814
v -170.019 24.6972 28.8343
v -170.019 24.6972 -28.8138
v -171.558 16.6036 -32.3609
v -170.32 16.3683 32.3814
v -168.781 24.4619 28.8343
v -168.781 24.4619 -28.8138
v -170.32 16.3683 -32.3609
v -165.481 65.7039 -11.104
v -164.496 70.8834 -8.83955
v -164.496 70.8834 8.84572
v -165.481 65.7039 11.1103
v -166.718 65.9391 -11.104
v -166.718 65.9391 11.1103
v -165.733 71.1187 -8.83955
v -165.733 71.1187 8.84572
v 164.458 71.4082 -0.93435
v 171.034 71.4082 -0.93435
v 167.209 91.4062 -0.93435
v 160.633 91.4062 -0.93435
v 171.034 71.4082 -2.26771
v 167.209 91.4062 -2.26771
v 164.458 71.4082 -2.26771
v 160.633 91.4062 -2.26771
v 154.516 71.4082 -0.93435
v 161.092 71.4082 -0.93435
v 157.267 91.4062 -0.93435
v 150.691 91.4062 -0.93435
v 161.092 71.4082 -2.26771
v 157.267 91.4062 -2.26771
v 154.516 71.4082 -2.26771
v 150.691 91.4062 -2.26771
v 154.516 71.4082 2.2397
v 161.092 71.4082 2.2397
v 157.267 91.4062 2.2397
v 150.691 91.4062 2.2397
v 161.092 71.4082 0.906338
v 157.267 91.4062 0.906338
v 154.516 71.4082 0.906338
v 150.691 91.4062 0.906338
v 164.458 71.4082 2.2397
v 171.034 71.4082 2.2397
v 167.209 91.4062 2.2397
v 160.633 91.4062 2.2397
v 171.034 71.4082 0.906338
v 167.209 91.4062 0.906338
v 164.458 71.4082 0.906338
v 160.633 91.4062 0.906338
v -164.458 71.4082 -0.93435
v -160.633 91.4062 -0.93435
v -167.209 91.4062 -0.93435
v -171.034 71.4082 -0.93435
v -167.209 91.4062 -2.26771
v -171.034 71.4082 -2.26771
v -160.633 91.4062 -2.26771
v -164.458 71.4082 -2.26771
v -154.516 71.4082 -0.93435
v -150.691 91.4062 -0.93435
v -157.267 91.4062 -0.93435
v -161.092 71.4082 -0.93435
v -157.267 91.4062 -2.26771
v -161.092 71.4082 -2.26771
v -150.691 91.4062 -2.26771
v -154.516 71.4082 -2.26771
v -154.516 71.4082 2.2397
v -150.691 91.4062 2.2397
v -157.267 91.4062 2.2397
v -161.092 71.4082 2.2397
v -157.267 91.4062 0.906338
v -161.092 71.4082 0.906338
v -150.691 91.4062 0.906338
v -154.516 71.4082 0.906338
v -164.458 71.4082 2.2397
v -160.633 91.4062 2.2397
v -167.209 91.4062 2.2397
v -171.034 71.4082 2.2397
v -167.209 91.4062 0.906338
v -171.034 71.4082 0.906338
v -160.633 91.4062 0.906338
v -164.458 71.4082 0.906338
v -208.266 71.2286 0.856013
v 208.266 71.2286 0.856013
v 208.266 91.4345 0.856013
v -208.266 91.4345 0.856013
v 208.266 71.2286 -0.856013
v 208.266 91.4345 -0.856013
v -208.266 71.2286 -0.856013
v -208.266 91.4345 -0.856013

# 432 UV coordinates
vt 0.497029 0.437426 0
vt 0.517279 0.437426 0
vt 0.424851 0.804697 0
vt 0.42508 0.728717 0
vt 0.161081 0.344195 0
vt 0.168476 0.341747 0
vt 0.176973 0.419569 0
vt 0.169577 0.422017 0
vt 0.759166 0.437426 0
vt 0.831094 0.728717 0
vt 0.831323 0.804696 0
vt 0.738895 0.437426 0
vt 0.128507 0.0458394 0
vt 0.135902 0.0433912 0
vt 0.892513 0.424865 0
vt 0.851043 0.804696 0
vt 0.843576 0.802224 0
vt 0.885045 0.422393 0
vt 0.899169 0.198984 0
vt 0.899169 0.234281 0
vt 0.891949 0.234281 0
vt 0.891949 0.19902 0
vt 0.235739 0.437426 0
vt 0.307688 0.728717 0
vt 0.307917 0.804697 0
vt 0.215489 0.437426 0
vt 0.265837 0.344195 0
vt 0.257341 0.422017 0
vt 0.249945 0.419568 0
vt 0.258442 0.341746 0
vt 0.60169 0.437426 0
vt 0.62196 0.437426 0
vt 0.529532 0.804697 0
vt 0.529761 0.728717 0
vt 0.298411 0.0458395 0
vt 0.291016 0.0433912 0
vt 0.0061266 0.0458633 0
vt 0.0135941 0.0433912 0
vt 0.0550635 0.423223 0
vt 0.047596 0.425695 0
vt 0.825598 0.422012 0
vt 0.818377 0.421976 0
vt 0.818377 0.386715 0
vt 0.825598 0.386715 0
vt 0.537705 0.297941 0
vt 0.691772 0.297941 0
vt 0.683331 0.331478 0
vt 0.546146 0.331478 0
vt 0.945166 0.118953 0
vt 0.945166 0.387226 0
vt 0.942221 0.387226 0
vt 0.942221 0.118953 0
vt 0.726599 0.406131 0
vt 0.730555 0.422012 0
vt 0.727373 0.422012 0
vt 0.723417 0.406131 0
vt 0.726599 0.148021 0
vt 0.723417 0.148021 0
vt 0.730555 0.132139 0
vt 0.727373 0.132139 0
vt 0.371384 0.388479 0
vt 0.525451 0.388479 0
vt 0.517011 0.422016 0
vt 0.379825 0.422016 0
vt 0.839649 0.389199 0
vt 0.892513 0.389199 0
vt 0.887124 0.410661 0
vt 0.845038 0.410661 0
vt 0.988589 0.608864 0
vt 0.988589 0.700915 0
vt 0.985645 0.700915 0
vt 0.985645 0.608864 0
vt 0.975991 0.213668 0
vt 0.978675 0.224419 0
vt 0.975301 0.224419 0
vt 0.972617 0.213668 0
vt 0.975991 0.129704 0
vt 0.972617 0.129704 0
vt 0.978675 0.118953 0
vt 0.975301 0.118953 0
vt 0.444955 0.125613 0
vt 0.497819 0.125613 0
vt 0.49243 0.147075 0
vt 0.450344 0.147075 0
vt 0.537705 0.34321 0
vt 0.691772 0.34321 0
vt 0.683331 0.376747 0
vt 0.546146 0.376747 0
vt 0.711164 0.132139 0
vt 0.707207 0.148021 0
vt 0.704026 0.148021 0
vt 0.707982 0.132139 0
vt 0.707207 0.406135 0
vt 0.704026 0.406135 0
vt 0.711164 0.422016 0
vt 0.707982 0.422016 0
vt 0.929968 0.118953 0
vt 0.929968 0.38723 0
vt 0.927023 0.38723 0
vt 0.927023 0.118953 0
vt 0.537705 0.252672 0
vt 0.691772 0.252672 0
vt 0.683331 0.286209 0
vt 0.546146 0.286209 0
vt 0.846708 0.118953 0
vt 0.899572 0.118953 0
vt 0.894183 0.140416 0
vt 0.852097 0.140416 0
vt 0.988589 0.505084 0
vt 0.988589 0.597133 0
vt 0.985645 0.597133 0
vt 0.985645 0.505084 0
vt 0.96933 0.55955 0
vt 0.972015 0.570301 0
vt 0.968641 0.570301 0
vt 0.965956 0.55955 0
vt 0.96933 0.475587 0
vt 0.965956 0.475587 0
vt 0.972015 0.464836 0
vt 0.968641 0.464836 0
vt 0.575189 0.125613 0
vt 0.628052 0.125613 0
vt 0.622663 0.147075 0
vt 0.580578 0.147075 0
vt 0.026377 0.437426 0
vt 0.0983261 0.728717 0
vt 0.0985546 0.804697 0
vt 0.0061266 0.437426 0
vt 0.205118 0.344195 0
vt 0.196622 0.422017 0
vt 0.189226 0.419569 0
vt 0.197723 0.341746 0
vt 0.182965 0.437426 0
vt 0.203236 0.437426 0
vt 0.110808 0.804697 0
vt 0.111036 0.728717 0
vt 0.237692 0.0458394 0
vt 0.230297 0.0433912 0
vt 0.0673167 0.0458633 0
vt 0.0747842 0.0433912 0
vt 0.116254 0.423222 0
vt 0.108786 0.425694 0
vt 0.891949 0.246013 0
vt 0.899169 0.246048 0
vt 0.899169 0.28131 0
vt 0.891949 0.28131 0
vt 0.392348 0.437426 0
vt 0.412598 0.437426 0
vt 0.32017 0.804697 0
vt 0.320399 0.728717 0
vt 0.343239 0.344195 0
vt 0.350634 0.341746 0
vt 0.359131 0.419568 0
vt 0.351735 0.422016 0
vt 0.654484 0.437426 0
vt 0.726413 0.728717 0
vt 0.726642 0.804697 0
vt 0.634214 0.437426 0
vt 0.310665 0.0458394 0
vt 0.31806 0.0433912 0
vt 0.953703 0.424865 0
vt 0.912233 0.804696 0
vt 0.904766 0.802225 0
vt 0.946235 0.422393 0
vt 0.891949 0.328338 0
vt 0.891949 0.293041 0
vt 0.899169 0.293041 0
vt 0.899169 0.328303 0
vt 0.525451 0.34321 0
vt 0.517011 0.376747 0
vt 0.379825 0.376747 0
vt 0.371384 0.34321 0
vt 0.957419 0.118953 0
vt 0.960364 0.118953 0
vt 0.960364 0.387225 0
vt 0.957419 0.387225 0
vt 0.766156 0.40613 0
vt 0.769338 0.40613 0
vt 0.765382 0.422012 0
vt 0.7622 0.422012 0
vt 0.766156 0.148021 0
vt 0.769338 0.148021 0
vt 0.7622 0.132139 0
vt 0.765382 0.132139 0
vt 0.525451 0.297941 0
vt 0.51701 0.331478 0
vt 0.379825 0.331478 0
vt 0.371384 0.297941 0
vt 0.834455 0.118953 0
vt 0.829066 0.140416 0
vt 0.78698 0.140416 0
vt 0.781591 0.118953 0
vt 0.985645 0.712646 0
vt 0.988589 0.712646 0
vt 0.988589 0.804697 0
vt 0.985645 0.804697 0
vt 0.968641 0.676748 0
vt 0.972015 0.676748 0
vt 0.96933 0.687499 0
vt 0.965956 0.687499 0
vt 0.968641 0.592784 0
vt 0.972015 0.592784 0
vt 0.965956 0.582033 0
vt 0.96933 0.582033 0
vt 0.892513 0.356005 0
vt 0.887124 0.377468 0
vt 0.845038 0.377468 0
vt 0.839649 0.356005 0
vt 0.525451 0.252672 0
vt 0.51701 0.286209 0
vt 0.379825 0.286209 0
vt 0.371384 0.252672 0
vt 0.742808 0.132139 0
vt 0.74599 0.132139 0
vt 0.749947 0.148021 0
vt 0.746765 0.148021 0
vt 0.749947 0.40613 0
vt 0.746765 0.40613 0
vt 0.74599 0.422012 0
vt 0.742808 0.422012 0
vt 0.911825 0.118953 0
vt 0.91477 0.118953 0
vt 0.91477 0.387228 0
vt 0.911825 0.387228 0
vt 0.691772 0.388479 0
vt 0.683331 0.422016 0
vt 0.546146 0.422016 0
vt 0.537705 0.388479 0
vt 0.432702 0.125613 0
vt 0.427313 0.147075 0
vt 0.385228 0.147075 0
vt 0.379839 0.125613 0
vt 0.990929 0.330868 0
vt 0.993873 0.330868 0
vt 0.993873 0.422918 0
vt 0.990929 0.422918 0
vt 0.968641 0.793945 0
vt 0.972015 0.793945 0
vt 0.96933 0.804696 0
vt 0.965956 0.804696 0
vt 0.968641 0.709981 0
vt 0.972015 0.709981 0
vt 0.965956 0.69923 0
vt 0.96933 0.69923 0
vt 0.562936 0.125613 0
vt 0.557547 0.147075 0
vt 0.515461 0.147075 0
vt 0.510072 0.125613 0
vt 0.790613 0.152147 0
vt 0.806124 0.152147 0
vt 0.797102 0.234281 0
vt 0.781591 0.234281 0
vt 0.899572 0.0984092 0
vt 0.899572 0.107222 0
vt 0.885053 0.107222 0
vt 0.885053 0.0984092 0
vt 0.592099 0.158807 0
vt 0.607609 0.158807 0
vt 0.616631 0.24094 0
vt 0.60112 0.24094 0
vt 0.472858 0.105068 0
vt 0.472858 0.113881 0
vt 0.458339 0.113881 0
vt 0.458339 0.105068 0
vt 0.860092 0.0984092 0
vt 0.860092 0.107222 0
vt 0.497819 0.105068 0
vt 0.497819 0.113881 0
vt 0.827399 0.152147 0
vt 0.84291 0.152147 0
vt 0.833888 0.234281 0
vt 0.818377 0.234281 0
vt 0.549552 0.0845243 0
vt 0.549552 0.0933372 0
vt 0.535034 0.0933372 0
vt 0.535034 0.0845243 0
vt 0.444955 0.158807 0
vt 0.460466 0.158807 0
vt 0.469488 0.24094 0
vt 0.453977 0.24094 0
vt 0.472858 0.0845243 0
vt 0.472858 0.0933372 0
vt 0.458339 0.0933372 0
vt 0.458339 0.0845243 0
vt 0.510072 0.0845243 0
vt 0.510072 0.0933372 0
vt 0.497819 0.0845243 0
vt 0.497819 0.0933372 0
vt 0.864184 0.246013 0
vt 0.879695 0.246013 0
vt 0.870674 0.328146 0
vt 0.855163 0.328146 0
vt 0.601286 0.0845243 0
vt 0.601286 0.0933372 0
vt 0.586767 0.0933372 0
vt 0.586767 0.0845243 0
vt 0.855163 0.152148 0
vt 0.870674 0.152148 0
vt 0.879695 0.234281 0
vt 0.864184 0.234281 0
vt 0.394357 0.0845244 0
vt 0.394357 0.0933373 0
vt 0.379839 0.0933373 0
vt 0.379839 0.0845244 0
vt 0.561806 0.0845243 0
vt 0.561806 0.0933372 0
vt 0.419318 0.0845244 0
vt 0.419318 0.0933373 0
vt 0.564334 0.158807 0
vt 0.579845 0.158807 0
vt 0.570824 0.24094 0
vt 0.555313 0.24094 0
vt 0.944246 0.401849 0
vt 0.944246 0.410661 0
vt 0.929727 0.410661 0
vt 0.929727 0.401849 0
vt 0.628884 0.158807 0
vt 0.644395 0.158807 0
vt 0.653417 0.24094 0
vt 0.637906 0.24094 0
vt 0.665241 0.138262 0
vt 0.665241 0.147075 0
vt 0.650723 0.147075 0
vt 0.650723 0.138262 0
vt 0.904766 0.401849 0
vt 0.904766 0.410661 0
vt 0.690203 0.138262 0
vt 0.690203 0.147075 0
vt 0.534038 0.158807 0
vt 0.54306 0.24094 0
vt 0.527549 0.24094 0
vt 0.518527 0.158807 0
vt 0.702456 0.0971739 0
vt 0.716974 0.0971739 0
vt 0.716974 0.105987 0
vt 0.702456 0.105987 0
vt 0.432702 0.158807 0
vt 0.423681 0.240941 0
vt 0.40817 0.240941 0
vt 0.417191 0.158807 0
vt 0.535034 0.105068 0
vt 0.549552 0.105068 0
vt 0.549552 0.113881 0
vt 0.535034 0.113881 0
vt 0.741936 0.0971739 0
vt 0.741936 0.105987 0
vt 0.510072 0.113881 0
vt 0.510072 0.105068 0
vt 0.681181 0.158807 0
vt 0.690203 0.24094 0
vt 0.674692 0.24094 0
vt 0.66567 0.158807 0
vt 0.379839 0.105069 0
vt 0.394357 0.105069 0
vt 0.394357 0.113881 0
vt 0.379839 0.113881 0
vt 0.506274 0.158807 0
vt 0.497252 0.24094 0
vt 0.481741 0.24094 0
vt 0.490763 0.158807 0
vt 0.830883 0.0971739 0
vt 0.845401 0.0971739 0
vt 0.845401 0.105987 0
vt 0.830883 0.105987 0
vt 0.419319 0.105069 0
vt 0.419319 0.113881 0
vt 0.805922 0.105987 0
vt 0.805922 0.0971739 0
vt 0.797102 0.246013 0
vt 0.806124 0.328146 0
vt 0.790613 0.328146 0
vt 0.781591 0.246013 0
vt 0.561805 0.105068 0
vt 0.576324 0.105068 0
vt 0.576324 0.113881 0
vt 0.561805 0.113881 0
vt 0.395917 0.158807 0
vt 0.386895 0.240941 0
vt 0.371384 0.240941 0
vt 0.380406 0.158807 0
vt 0.675684 0.0971739 0
vt 0.690203 0.0971739 0
vt 0.690203 0.105987 0
vt 0.675684 0.105987 0
vt 0.601286 0.105068 0
vt 0.601286 0.113881 0
vt 0.650723 0.105987 0
vt 0.650723 0.0971739 0
vt 0.833888 0.246013 0
vt 0.84291 0.328146 0
vt 0.827399 0.328146 0
vt 0.818377 0.246013 0
vt 0.754189 0.0971739 0
vt 0.768707 0.0971739 0
vt 0.768707 0.105987 0
vt 0.754189 0.105987 0
vt 0.806124 0.339878 0
vt 0.797102 0.422012 0
vt 0.781591 0.422012 0
vt 0.790613 0.339878 0
vt 0.675684 0.117718 0
vt 0.690203 0.117718 0
vt 0.690203 0.126531 0
vt 0.675684 0.126531 0
vt 0.793669 0.0971739 0
vt 0.793669 0.105987 0
vt 0.650722 0.126531 0
vt 0.650722 0.117718 0
vt 0.0061266 0.816428 0
vt 0.988589 0.816428 0
vt 0.988589 0.899415 0
vt 0.0061266 0.899415 0
vt 0.974637 0.23615 0
vt 0.978675 0.23615 0
vt 0.978675 0.319137 0
vt 0.974637 0.319137 0
vt 0.0061266 0.911147 0
vt 0.988589 0.911147 0
vt 0.988589 0.994134 0
vt 0.0061266 0.994134 0
vt 0.974637 0.330868 0
vt 0.978675 0.330868 0
vt 0.978675 0.413856 0
vt 0.974637 0.413856 0
vt 0.0061266 0.00586569 0
vt 0.988597 0.00586569 0
vt 0.988597 0.0128971 0
vt 0.0061266 0.0128971 0
vt 0.0061266 0.0246284 0
vt 0.988582 0.0246284 0
vt 0.988582 0.03166 0
vt 0.0061266 0.03166 0

# 72 vertex normals
vn -0.982405 -0.186765 4.37967e-07
vn 0.0369071 -0.197639 -0.97958
vn 0.000960659 -0.00505317 -0.999987
vn 0.982405 0.186765 7.66664e-07
vn 0.0714217 -0.382557 -0.921167
vn -0.0738502 0.38846 0.918502
vn 0.186765 -0.982405 0
vn -0.982405 -0.186765 -4.37967e-07
vn 0.0369071 -0.197639 0.97958
vn 0.000960659 -0.00505317 0.999987
vn 0.982405 0.186765 -7.66664e-07
vn 0.0714217 -0.382557 0.921167
vn -0.0738502 0.38846 -0.918502
vn -0.982405 -0.186765 0
vn 0.186764 -0.982405 0
vn -0.0738559 0.388491 -0.918488
vn -0.186764 0.982405 0
vn -0.0738578 0.388502 0.918483
vn 0.982405 0.186765 0
vn -0.982405 -0.186764 0
vn 0.186764 -0.982405 0
vn -0.0737057 0.387702 -0.918833
vn -0.0737068 0.387707 0.918831
vn 0.982405 0.186764 0
vn 0.982405 0.186766 0
vn -0.0738583 0.388502 0.918483
vn -0.186767 0.982404 0
vn -0.0738563 0.388491 -0.918488
vn -0.982405 -0.186764 0
vn 0.982405 -0.186765 4.37967e-07
vn -0.0369071 -0.197639 -0.97958
vn -0.000960659 -0.00505317 -0.999987
vn -0.982405 0.186765 7.66664e-07
vn -0.0714217 -0.382557 -0.921167
vn 0.0738502 0.38846 0.918502
vn -0.186765 -0.982405 0
vn 0.982405 -0.186765 -4.37967e-07
vn -0.0369071 -0.197639 0.97958
vn -0.000960659 -0.00505317 0.999987
vn -0.982405 0.186765 -7.66664e-07
vn -0.0714217 -0.382557 0.921167
vn 0.0738502 0.38846 -0.918502
vn 0.982405 -0.186765 0
vn -0.186764 -0.982405 0
vn 0.0738559 0.388491 -0.918488
vn 0.186764 0.982405 0
vn 0.0738578 0.388502 0.918483
vn -0.982405 0.186765 0
vn 0.982405 -0.186764 0
vn -0.186764 -0.982405 0
vn 0.0737057 0.387702 -0.918833
vn 0.0737068 0.387707 0.918831
vn -0.982405 0.186764 0
vn -0.982405 0.186766 0
vn 0.0738583 0.388502 0.918483
vn 0.186767 0.982404 0
vn 0.0738563 0.388491 -0.918488
vn 0.982405 -0.186764 0
vn 0 0 1
vn 0.982196 0.187858 0
vn 0 0 -1
vn -0.982196 -0.187858 0
vn 0 1 0
vn 0 -1 0
vn 0.982196 0.187858 0
vn -0.982196 -0.187858 0
vn -0.982196 0.187858 0
vn 0.982196 -0.187858 0
vn -0.982196 0.187858 0
vn 0.982196 -0.187858 0
vn 1 0 0
vn -1 0 0

# Mesh 'Cube.1_Cube.1' with 252 faces
g Cube.1_Cube.1
usemtl Mat.1
f 1/1/1 2/2/1 3/3/1
f 3/3/1 4/4/1 1/1/1
f 5/5/2 4/6/2 3/7/3
f 3/7/3 6/8/3 5/5/2
f 7/9/4 5/10/4 6/11/4
f 6/11/4 8/12/4 7/9/4
f 7/13/5 1/14/5 4/6/2
f 4/6/2 5/5/2 7/13/5
f 8/15/6 6/16/6 3/17/6
f 3/17/6 2/18/6 8/15/6
f 7/19/7 8/20/7 2/21/7
f 2/21/7 1/22/7 7/19/7
f 9/23/8 10/24/8 11/25/8
f 11/25/8 12/26/8 9/23/8
f 13/27/9 14/28/10 11/29/10
f 11/29/10 10/30/9 13/27/9
f 15/31/11 16/32/11 14/33/11
f 14/33/11 13/34/11 15/31/11
f 15/35/12 13/27/9 10/30/9
f 10/30/9 9/36/12 15/35/12
f 16/37/13 12/38/13 11/39/13
f 11/39/13 14/40/13 16/37/13
f 15/41/7 9/42/7 12/43/7
f 12/43/7 16/44/7 15/41/7
f 17/45/14 18/46/14 19/47/14
f 19/47/14 20/48/14 17/45/14
f 21/49/15 22/50/15 18/51/15
f 18/51/15 17/52/15 21/49/15
f 23/53/16 21/54/16 17/55/16
f 17/55/16 20/56/16 23/53/16
f 24/57/17 23/53/17 20/56/17
f 20/56/17 19/58/17 24/57/17
f 22/59/18 24/57/18 19/58/18
f 19/58/18 18/60/18 22/59/18
f 22/61/19 21/62/19 23/63/19
f 23/63/19 24/64/19 22/61/19
f 25/65/20 26/66/20 27/67/20
f 27/67/20 28/68/20 25/65/20
f 29/69/21 30/70/21 26/71/21
f 26/71/21 25/72/21 29/69/21
f 31/73/22 29/74/22 25/75/22
f 25/75/22 28/76/22 31/73/22
f 32/77/17 31/73/17 28/76/17
f 28/76/17 27/78/17 32/77/17
f 30/79/23 32/77/23 27/78/23
f 27/78/23 26/80/23 30/79/23
f 30/81/24 29/82/24 31/83/24
f 31/83/24 32/84/24 30/81/24
f 33/85/25 34/86/25 35/87/25
f 35/87/25 36/88/25 33/85/25
f 33/89/26 36/90/26 37/91/26
f 37/91/26 38/92/26 33/89/26
f 36/90/27 35/93/27 39/94/27
f 39/94/27 37/91/27 36/90/27
f 35/93/28 34/95/28 40/96/28
f 40/96/28 39/94/28 35/93/28
f 34/97/15 33/98/15 38/99/15
f 38/99/15 40/100/15 34/97/15
f 40/101/29 38/102/29 37/103/29
f 37/103/29 39/104/29 40/101/29
f 41/105/20 42/106/20 43/107/20
f 43/107/20 44/108/20 41/105/20
f 45/109/21 46/110/21 42/111/21
f 42/111/21 41/112/21 45/109/21
f 47/113/22 45/114/22 41/115/22
f 41/115/22 44/116/22 47/113/22
f 48/117/17 47/113/17 44/116/17
f 44/116/17 43/118/17 48/117/17
f 46/119/23 48/117/23 43/118/23
f 43/118/23 42/120/23 46/119/23
f 46/121/24 45/122/24 47/123/24
f 47/123/24 48/124/24 46/121/24
f 49/125/30 50/126/30 51/127/30
f 51/127/30 52/128/30 49/125/30
f 53/129/31 54/130/32 51/131/32
f 51/131/32 50/132/31 53/129/31
f 55/133/33 56/134/33 54/135/33
f 54/135/33 53/136/33 55/133/33
f 55/137/34 53/129/31 50/132/31
f 50/132/31 49/138/34 55/137/34
f 56/139/35 52/140/35 51/141/35
f 51/141/35 54/142/35 56/139/35
f 55/143/36 49/144/36 52/145/36
f 52/145/36 56/146/36 55/143/36
f 57/147/37 58/148/37 59/149/37
f 59/149/37 60/150/37 57/147/37
f 61/151/38 60/152/38 59/153/39
f 59/153/39 62/154/39 61/151/38
f 63/155/40 61/156/40 62/157/40
f 62/157/40 64/158/40 63/155/40
f 63/159/41 57/160/41 60/152/38
f 60/152/38 61/151/38 63/159/41
f 64/161/42 62/162/42 59/163/42
f 59/163/42 58/164/42 64/161/42
f 63/165/36 64/166/36 58/167/36
f 58/167/36 57/168/36 63/165/36
f 65/169/43 66/170/43 67/171/43
f 67/171/43 68/172/43 65/169/43
f 69/173/44 65/174/44 68/175/44
f 68/175/44 70/176/44 69/173/44
f 71/177/45 66/178/45 65/179/45
f 65/179/45 69/180/45 71/177/45
f 72/181/46 67/182/46 66/178/46
f 66/178/46 71/177/46 72/181/46
f 70/183/47 68/184/47 67/182/47
f 67/182/47 72/181/47 70/183/47
f 70/185/48 72/186/48 71/187/48
f 71/187/48 69/188/48 70/185/48
f 73/189/49 74/190/49 75/191/49
f 75/191/49 76/192/49 73/189/49
f 77/193/50 73/194/50 76/195/50
f 76/195/50 78/196/50 77/193/50
f 79/197/51 74/198/51 73/199/51
f 73/199/51 77/200/51 79/197/51
f 80/201/46 75/202/46 74/198/46
f 74/198/46 79/197/46 80/201/46
f 78/203/52 76/204/52 75/202/52
f 75/202/52 80/201/52 78/203/52
f 78/205/53 80/206/53 79/207/53
f 79/207/53 77/208/53 78/205/53
f 81/209/54 82/210/54 83/211/54
f 83/211/54 84/212/54 81/209/54
f 81/213/55 85/214/55 86/215/55
f 86/215/55 82/216/55 81/213/55
f 82/216/56 86/215/56 87/217/56
f 87/217/56 83/218/56 82/216/56
f 83/218/57 87/217/57 88/219/57
f 88/219/57 84/220/57 83/218/57
f 84/221/44 88/222/44 85/223/44
f 85/223/44 81/224/44 84/221/44
f 88/225/58 87/226/58 86/227/58
f 86/227/58 85/228/58 88/225/58
f 89/229/49 90/230/49 91/231/49
f 91/231/49 92/232/49 89/229/49
f 93/233/50 89/234/50 92/235/50
f 92/235/50 94/236/50 93/233/50
f 95/237/51 90/238/51 89/239/51
f 89/239/51 93/240/51 95/237/51
f 96/241/46 91/242/46 90/238/46
f 90/238/46 95/237/46 96/241/46
f 94/243/52 92/244/52 91/242/52
f 91/242/52 96/241/52 94/243/52
f 94/245/53 96/246/53 95/247/53
f 95/247/53 93/248/53 94/245/53
f 97/249/59 98/250/59 99/251/59
f 99/251/59 100/252/59 97/249/59
f 98/253/60 101/254/60 102/255/60
f 102/255/60 99/256/60 98/253/60
f 101/257/61 103/258/61 104/259/61
f 104/259/61 102/260/61 101/257/61
f 103/261/62 97/262/62 100/263/62
f 100/263/62 104/264/62 103/261/62
f 100/265/63 99/256/63 102/255/63
f 102/255/63 104/266/63 100/265/63
f 103/261/64 101/267/64 98/268/64
f 98/268/64 97/262/64 103/261/64
f 105/269/59 106/270/59 107/271/59
f 107/271/59 108/272/59 105/269/59
f 106/273/65 109/274/65 110/275/65
f 110/275/65 107/276/65 106/273/65
f 109/277/61 111/278/61 112/279/61
f 112/279/61 110/280/61 109/277/61
f 111/281/66 105/282/66 108/283/66
f 108/283/66 112/284/66 111/281/66
f 108/285/63 107/276/63 110/275/63
f 110/275/63 112/286/63 108/285/63
f 111/281/64 109/287/64 106/288/64
f 106/288/64 105/282/64 111/281/64
f 113/289/59 114/290/59 115/291/59
f 115/291/59 116/292/59 113/289/59
f 114/293/65 117/294/65 118/295/65
f 118/295/65 115/296/65 114/293/65
f 117/297/61 119/298/61 120/299/61
f 120/299/61 118/300/61 117/297/61
f 119/301/66 113/302/66 116/303/66
f 116/303/66 120/304/66 119/301/66
f 116/305/63 115/296/63 118/295/63
f 118/295/63 120/306/63 116/305/63
f 119/301/64 117/307/64 114/308/64
f 114/308/64 113/302/64 119/301/64
f 121/309/59 122/310/59 123/311/59
f 123/311/59 124/312/59 121/309/59
f 122/313/60 125/314/60 126/315/60
f 126/315/60 123/316/60 122/313/60
f 125/317/61 127/318/61 128/319/61
f 128/319/61 126/320/61 125/317/61
f 127/321/62 121/322/62 124/323/62
f 124/323/62 128/324/62 127/321/62
f 124/325/63 123/316/63 126/315/63
f 126/315/63 128/326/63 124/325/63
f 127/321/64 125/327/64 122/328/64
f 122/328/64 121/322/64 127/321/64
f 129/329/59 130/330/59 131/331/59
f 131/331/59 132/332/59 129/329/59
f 132/333/67 131/334/67 133/335/67
f 133/335/67 134/336/67 132/333/67
f 134/337/61 133/338/61 135/339/61
f 135/339/61 136/340/61 134/337/61
f 136/341/68 135/342/68 130/343/68
f 130/343/68 129/344/68 136/341/68
f 130/345/63 135/346/63 133/335/63
f 133/335/63 131/334/63 130/345/63
f 136/341/64 129/344/64 132/347/64
f 132/347/64 134/348/64 136/341/64
f 137/349/59 138/350/59 139/351/59
f 139/351/59 140/352/59 137/349/59
f 140/353/69 139/354/69 141/355/69
f 141/355/69 142/356/69 140/353/69
f 142/357/61 141/358/61 143/359/61
f 143/359/61 144/360/61 142/357/61
f 144/361/70 143/362/70 138/363/70
f 138/363/70 137/364/70 144/361/70
f 138/365/63 143/366/63 141/355/63
f 141/355/63 139/354/63 138/365/63
f 144/361/64 137/364/64 140/367/64
f 140/367/64 142/368/64 144/361/64
f 145/369/59 146/370/59 147/371/59
f 147/371/59 148/372/59 145/369/59
f 148/373/69 147/374/69 149/375/69
f 149/375/69 150/376/69 148/373/69
f 150/377/61 149/378/61 151/379/61
f 151/379/61 152/380/61 150/377/61
f 152/381/70 151/382/70 146/383/70
f 146/383/70 145/384/70 152/381/70
f 146/385/63 151/386/63 149/375/63
f 149/375/63 147/374/63 146/385/63
f 152/381/64 145/384/64 148/387/64
f 148/387/64 150/388/64 152/381/64
f 153/389/59 154/390/59 155/391/59
f 155/391/59 156/392/59 153/389/59
f 156/393/67 155/394/67 157/395/67
f 157/395/67 158/396/67 156/393/67
f 158/397/61 157/398/61 159/399/61
f 159/399/61 160/400/61 158/397/61
f 160/401/68 159/402/68 154/403/68
f 154/403/68 153/404/68 160/401/68
f 154/405/63 159/406/63 157/395/63
f 157/395/63 155/394/63 154/405/63
f 160/401/64 153/404/64 156/407/64
f 156/407/64 158/408/64 160/401/64
f 161/409/59 162/410/59 163/411/59
f 163/411/59 164/412/59 161/409/59
f 162/413/71 165/414/71 166/415/71
f 166/415/71 163/416/71 162/413/71
f 165/417/61 167/418/61 168/419/61
f 168/419/61 166/420/61 165/417/61
f 167/421/72 161/422/72 164/423/72
f 164/423/72 168/424/72 167/421/72
f 164/425/63 163/426/63 166/427/63
f 166/427/63 168/428/63 164/425/63
f 167/429/64 165/430/64 162/431/64
f 162/431/64 161/432/64 167/429/64

